# xmcd
#
# Track frame offsets:
#	150
#	18482
#	39990
#	65475
#	88507
#	107500
#	131552
#	149930
#	175162
#	195287
#
# Disc length: 2929 seconds
#
# Revision: 1
# Processed by: cddbd v1.5.1PL0 Copyright (c) Steve Scherf et al.
# Submitted via: CDex 1.50Beta5
#
DISCID=850b6f0a
DTITLE=鈴木雄大 - SHOES ON MY SOUL
DYEAR=1900
DGENRE=Pop
TTITLE0=Twilight zone
TTITLE1=Tell Me How
TTITLE2=When I cry
TTITLE3=世界中の夏へ
TTITLE4=This Summer 〜この夏の終わり〜
TTITLE5=Nobody but you
TTITLE6=東京
TTITLE7=雨上がりの駅で
TTITLE8=1975
TTITLE9=太陽の靴
EXTD=
EXTT0=
EXTT1=
EXTT2=
EXTT3=
EXTT4=
EXTT5=
EXTT6=
EXTT7=
EXTT8=
EXTT9=
PLAYORDER=
